<?xml version="1.0" encoding="UTF-8"?>
<svg xmlns="http://www.w3.org/2000/svg" xmlns:xlink="http://www.w3.org/1999/xlink" width="180px" height="180px" viewBox="0 0 180 180" version="1.1">
<g id="surface1">
<path style="fill-rule:nonzero;fill:rgb(36.078432%,61.960787%,19.215687%);fill-opacity:1;stroke-width:1.185;stroke-linecap:butt;stroke-linejoin:miter;stroke:rgb(36.078432%,61.960787%,19.215687%);stroke-opacity:1;stroke-miterlimit:10;" d="M 39.95 44.059375 C 39.95 44.059375 48.242188 44.059375 50.609375 42.875 C 52.979688 41.690625 54.829688 43.689063 54.829688 43.689063 C 55.496875 42.134375 54.164062 40.50625 54.164062 40.50625 C 58.901563 42.875 61.270313 40.50625 61.270313 40.50625 C 64.825 40.50625 64.825 26.296875 55.348438 25.10625 C 45.871875 23.921875 45.871875 35.765625 45.871875 35.765625 L 43.503125 36.951563 C 43.503125 36.951563 43.503125 39.320312 39.948438 44.057813 Z M 39.95 44.059375 " transform="matrix(2.5,0,0,2.5,0,0)"/>
<path style=" stroke:none;fill-rule:nonzero;fill:rgb(69.411767%,80.000001%,20%);fill-opacity:1;" d="M 108.75 89.425781 C 108.75 89.425781 82.101562 62.773438 52.476562 74.617188 C 22.851562 86.460938 25.824219 116.066406 25.824219 116.066406 C 25.824219 116.066406 46.554688 130.875 73.199219 121.988281 C 99.851562 113.105469 103.175781 105.332031 103.175781 105.332031 C 103.175781 105.332031 108.726562 101.261719 108.726562 89.414062 "/>
<path style=" stroke:none;fill-rule:nonzero;fill:rgb(64.705884%,47.450981%,22.352941%);fill-opacity:1;" d="M 41.125 125.148438 L 19.886719 132.730469 C 19.886719 132.730469 31.15625 142.332031 43.164062 140.113281 C 55.171875 137.890625 55.90625 126.070312 55.90625 126.070312 L 41.128906 125.152344 "/>
<path style=" stroke:none;fill-rule:nonzero;fill:rgb(64.705884%,47.450981%,22.352941%);fill-opacity:1;" d="M 81.925781 118.648438 L 90.996094 136.789062 C 90.996094 136.789062 105.800781 139.75 114.683594 136.789062 C 123.566406 133.824219 98.765625 112.726562 91.921875 114.390625 "/>
<path style="fill-rule:nonzero;fill:rgb(36.078432%,61.960787%,19.215687%);fill-opacity:1;stroke-width:1.185;stroke-linecap:butt;stroke-linejoin:miter;stroke:rgb(36.078432%,61.960787%,19.215687%);stroke-opacity:1;stroke-miterlimit:10;" d="M 29.220313 36.379688 L 19.809375 39.315625 C 19.809375 39.315625 19.809375 41.684375 18.623438 44.053125 C 17.439063 46.421875 31.654688 45.2375 34.023438 41.684375 Z M 29.220313 36.379688 " transform="matrix(2.5,0,0,2.5,0,0)"/>
<path style="fill:none;stroke-width:2.378;stroke-linecap:round;stroke-linejoin:round;stroke:rgb(0%,0%,0%);stroke-opacity:1;stroke-miterlimit:10;" d="M 40.259375 44.229688 C 40.259375 44.229688 48.582813 44.229688 50.959375 43.040625 C 53.3375 41.851562 55.195312 43.857813 55.195312 43.857813 C 55.864063 42.296875 54.526563 40.6625 54.526563 40.6625 C 59.282813 43.040625 61.660938 40.6625 61.660938 40.6625 C 65.228125 40.6625 65.228125 26.392188 55.715625 25.203125 C 46.204688 24.0125 46.204688 35.903125 46.204688 35.903125 L 43.826563 37.092188 C 43.826563 37.092188 43.826563 39.46875 40.259375 44.225 Z M 40.259375 44.229688 " transform="matrix(2.5,0,0,2.5,0,0)"/>
<path style="fill:none;stroke-width:2.378;stroke-linecap:round;stroke-linejoin:round;stroke:rgb(0%,0%,0%);stroke-opacity:1;stroke-miterlimit:10;" d="M 43.829688 35.9 C 43.829688 35.9 33.129688 25.2 21.240625 29.954688 C 9.35 34.710938 10.540625 46.604688 10.540625 46.604688 C 10.540625 46.604688 18.8625 52.55 29.559375 48.982813 C 40.25625 45.415625 41.6 42.295313 41.6 42.295313 C 41.6 42.295313 43.829688 40.659375 43.829688 35.904688 " transform="matrix(2.5,0,0,2.5,0,0)"/>
<path style="fill:none;stroke-width:2.378;stroke-linecap:round;stroke-linejoin:round;stroke:rgb(0%,0%,0%);stroke-opacity:1;stroke-miterlimit:10;" d="M 11.720313 42.4 C 11.720313 42.4 28.870313 52.9 41.45 34.7125 " transform="matrix(2.5,0,0,2.5,0,0)"/>
<path style="fill:none;stroke-width:2.378;stroke-linecap:round;stroke-linejoin:round;stroke:rgb(0%,0%,0%);stroke-opacity:1;stroke-miterlimit:10;" d="M 18.859375 44.229688 C 18.859375 44.229688 22.426563 39.028125 14.104688 35.90625 " transform="matrix(2.5,0,0,2.5,0,0)"/>
<path style="fill:none;stroke-width:2;stroke-linecap:round;stroke-linejoin:round;stroke:rgb(0%,0%,0%);stroke-opacity:1;stroke-miterlimit:10;" d="M 22.99979 42.000631 L 30.93976 39.519554 L 32.000263 34.00021 " transform="matrix(2.9725,0,0,2.9725,-18.2575,-26.175001)"/>
<path style="fill:none;stroke-width:2.378;stroke-linecap:round;stroke-linejoin:round;stroke:rgb(0%,0%,0%);stroke-opacity:1;stroke-miterlimit:10;" d="M 34.020313 41.25 L 29.559375 37.090625 " transform="matrix(2.5,0,0,2.5,0,0)"/>
<path style="fill:none;stroke-width:2.378;stroke-linecap:round;stroke-linejoin:round;stroke:rgb(0%,0%,0%);stroke-opacity:1;stroke-miterlimit:10;" d="M 16.670313 50.25 L 8.140625 53.29375 C 8.140625 53.29375 12.665625 57.148438 17.4875 56.25625 C 22.307813 55.365625 22.603125 50.61875 22.603125 50.61875 L 16.66875 50.25 " transform="matrix(2.5,0,0,2.5,0,0)"/>
<path style="fill:none;stroke-width:2.378;stroke-linecap:round;stroke-linejoin:round;stroke:rgb(0%,0%,0%);stroke-opacity:1;stroke-miterlimit:10;" d="M 33.05 47.65 L 36.690625 54.932813 C 36.690625 54.932813 42.635938 56.121875 46.203125 54.932813 C 49.770313 53.74375 39.8125 45.271875 37.0625 45.940625 " transform="matrix(2.5,0,0,2.5,0,0)"/>
</g>
</svg>
